<svg width="1216" height="500" viewBox="0 0 1216 500" fill="none" xmlns="http://www.w3.org/2000/svg">
<style>
  .kacy-text { fill: #4E454A; }
  @media (prefers-color-scheme: dark) {
    .kacy-text { fill: #FFFFFF; }
  }
  :root[data-theme="dark"] .kacy-text { fill: #FFFFFF; }
</style>
<path d="M245 45C285.83 45 320.943 69.4709 336.478 104.546C343.716 102.88 351.255 102 359 102C414.228 102 459 146.772 459 202C459 233.588 444.353 261.754 421.481 280.08C430.693 295.214 436 312.987 436 332C436 387.228 391.228 432 336 432C312.044 432 290.057 423.575 272.837 409.528C254.996 436.903 224.112 455 189 455C133.772 455 89 410.228 89 355C89 346.339 90.1013 337.936 92.1709 329.922C63.848 312.265 45 280.834 45 245C45 189.772 89.7715 145 145 145C145 89.7715 189.772 45 245 45Z" fill="#82BC46"/>
<path d="M252 255.5C252 280.629 236.106 301 216.5 301C196.894 301 181 280.629 181 255.5C181 230.371 196.894 210 216.5 210C236.106 210 252 230.371 252 255.5Z" fill="white"/>
<path d="M353 244C353 269.129 337.106 289.5 317.5 289.5C297.894 289.5 282 269.129 282 244C282 218.871 297.894 198.5 317.5 198.5C337.106 198.5 353 218.871 353 244Z" fill="white"/>
<path d="M304.813 307.422C301.41 325.393 288.238 340.832 269.455 346.217C251.401 351.394 232.819 345.946 220.383 333.581C233.074 336.22 247.618 335.753 262.283 331.548C278.375 326.934 291.958 318.579 301.534 308.405C302.636 308.085 303.73 307.757 304.813 307.422Z" fill="white"/>
<path class="kacy-text" d="M1103.21 89.9805C1103.18 90.876 1103.16 91.7761 1103.16 92.6807C1103.16 128.494 1132.19 157.526 1168 157.526C1168.91 157.526 1169.81 157.506 1170.7 157.47V157.583C1169.81 157.546 1168.91 157.527 1168 157.527C1132.19 157.527 1103.16 186.711 1103.16 222.71C1103.16 223.501 1103.17 224.29 1103.2 225.074H1103.11C1103.14 224.29 1103.16 223.501 1103.16 222.71C1103.16 186.711 1073.97 157.527 1037.97 157.527C1037.18 157.527 1036.39 157.541 1035.61 157.569V157.483C1036.39 157.511 1037.18 157.526 1037.97 157.526C1073.97 157.526 1103.16 128.494 1103.16 92.6807C1103.16 91.7761 1103.14 90.876 1103.1 89.9805H1103.21Z"/>
<path class="kacy-text" d="M507.888 338.02V148.872H540.876V255.018C546.906 251.294 552.67 247.215 558.168 242.781C563.666 238.169 568.721 233.381 573.332 228.415C577.943 223.449 582.022 218.483 585.569 213.517C589.116 208.374 592.043 203.497 594.348 198.886H632.923C630.085 205.802 626.36 212.631 621.749 219.37C617.138 226.109 611.729 232.317 605.521 237.992C599.491 243.667 592.663 248.633 585.037 252.89C577.411 256.969 569.253 259.807 560.562 261.403V265.127C571.558 263.531 580.781 264.063 588.229 266.723C595.678 269.384 601.974 273.374 607.118 278.695C612.261 284.015 616.517 290.223 619.887 297.317C623.434 304.234 626.715 311.328 629.73 318.599L636.647 338.02H599.669L595.412 325.25C592.043 316.382 588.495 308.579 584.771 301.839C581.224 294.923 576.701 289.602 571.203 285.878C565.883 281.976 558.966 280.025 550.453 280.025H540.876V338.02H507.888ZM682.456 341.478C674.83 341.478 668.002 340.059 661.972 337.221C655.942 334.206 651.153 329.773 647.606 323.92C644.236 318.067 642.552 310.796 642.552 302.105C642.552 294.834 643.882 288.627 646.542 283.483C649.38 278.34 653.547 274.172 659.045 270.98C664.543 267.61 671.372 264.861 679.53 262.733C687.688 260.427 697.265 258.476 708.261 256.88C714.291 255.994 719.168 255.107 722.893 254.22C726.795 253.333 729.632 252.003 731.406 250.23C733.179 248.279 734.066 245.441 734.066 241.717C734.066 236.219 732.115 231.519 728.213 227.617C724.489 223.538 718.37 221.498 709.857 221.498C704.714 221.498 699.748 222.385 694.96 224.159C690.348 225.932 686.358 228.77 682.988 232.672C679.618 236.396 677.313 241.362 676.071 247.569L646.01 238.258C647.961 231.164 650.799 225.045 654.523 219.902C658.247 214.581 662.859 210.059 668.357 206.335C673.854 202.61 680.151 199.861 687.245 198.088C694.339 196.314 702.142 195.427 710.655 195.427C723.602 195.427 734.243 197.556 742.579 201.812C750.915 205.891 757.122 212.365 761.201 221.232C765.28 229.923 767.32 241.184 767.32 255.018V281.089C767.32 287.119 767.408 293.415 767.586 299.977C767.941 306.362 768.295 312.835 768.65 319.397C769.182 325.782 769.803 331.99 770.512 338.02H740.451C739.741 333.054 739.121 327.733 738.589 322.058C738.056 316.382 737.613 310.618 737.258 304.766H733.002C730.519 311.505 726.972 317.713 722.361 323.388C717.749 328.886 712.074 333.32 705.335 336.689C698.773 339.882 691.146 341.478 682.456 341.478ZM695.758 316.737C699.305 316.737 702.852 316.116 706.399 314.875C710.123 313.633 713.759 311.771 717.306 309.288C720.853 306.805 724.134 303.79 727.149 300.243C730.164 296.519 732.736 292.174 734.864 287.208L734.332 263.531L740.717 264.595C737.702 267.078 733.977 269.029 729.543 270.448C725.11 271.867 720.41 272.931 715.444 273.64C710.655 274.35 705.778 275.236 700.812 276.3C696.024 277.187 691.679 278.429 687.777 280.025C683.875 281.444 680.771 283.572 678.466 286.41C676.16 289.07 675.007 292.794 675.007 297.583C675.007 303.613 676.958 308.313 680.86 311.683C684.762 315.052 689.728 316.737 695.758 316.737ZM855.422 341.478C843.362 341.478 832.898 339.704 824.03 336.157C815.34 332.61 808.068 327.644 802.215 321.26C796.54 314.698 792.284 307.071 789.446 298.381C786.608 289.691 785.19 280.291 785.19 270.182C785.19 259.363 786.608 249.431 789.446 240.386C792.461 231.341 796.895 223.449 802.748 216.71C808.6 209.97 815.783 204.738 824.296 201.014C832.986 197.289 842.918 195.427 854.091 195.427C865.265 195.427 874.93 197.289 883.089 201.014C891.424 204.738 898.164 209.97 903.307 216.71C908.45 223.272 911.909 230.987 913.682 239.854L882.291 249.697C881.936 244.377 880.517 239.677 878.034 235.598C875.551 231.341 872.181 228.06 867.925 225.755C863.668 223.449 858.614 222.296 852.761 222.296C847.086 222.296 842.12 223.449 837.864 225.755C833.784 227.883 830.326 230.987 827.488 235.066C824.828 239.145 822.7 244.111 821.104 249.963C819.685 255.639 818.975 262.024 818.975 269.118C818.975 278.872 820.306 287.208 822.966 294.125C825.626 301.041 829.705 306.451 835.203 310.352C840.701 314.077 847.529 315.939 855.688 315.939C862.959 315.939 868.812 314.609 873.246 311.949C877.857 309.111 881.315 305.475 883.621 301.041C886.104 296.607 887.611 291.73 888.143 286.41L917.939 293.06C916.875 300.332 914.835 306.894 911.82 312.747C908.805 318.599 904.637 323.743 899.317 328.176C894.173 332.433 887.966 335.714 880.694 338.02C873.423 340.325 864.999 341.478 855.422 341.478ZM981.956 385.639C974.862 385.639 967.679 384.93 960.408 383.511C953.136 382.092 946.308 379.875 939.924 376.86C933.716 374.022 928.484 370.298 924.228 365.687L935.667 338.02C940.81 343.872 947.461 348.306 955.619 351.321C963.778 354.336 972.025 355.844 980.36 355.844C990.115 355.844 998.184 353.804 1004.57 349.725C1010.95 345.823 1015.83 339.704 1019.2 331.369C1022.57 323.033 1024.43 312.658 1024.79 300.243L1026.65 274.97H1021.06C1019.29 287.03 1016.36 296.874 1012.28 304.5C1008.2 311.949 1003.06 317.447 996.854 320.994C990.824 324.363 983.73 326.048 975.572 326.048C965.463 326.048 956.95 323.477 950.033 318.333C943.116 313.19 937.884 305.564 934.337 295.455C930.967 285.346 929.282 272.842 929.282 257.944V198.886H963.068V250.23C963.068 266.901 965.108 279.049 969.187 286.676C973.266 294.125 979.473 297.849 987.809 297.849C992.243 297.849 996.322 296.696 1000.05 294.391C1003.77 291.908 1006.87 288.449 1009.36 284.015C1012.02 279.404 1014.06 273.729 1015.48 266.989C1017.07 260.25 1017.96 252.535 1018.14 243.845V198.886H1051.92V301.573C1051.92 312.747 1050.95 322.856 1049 331.901C1047.22 340.769 1044.47 348.483 1040.75 355.045C1037.02 361.785 1032.32 367.46 1026.65 372.071C1021.15 376.683 1014.68 380.052 1007.23 382.181C999.78 384.486 991.356 385.639 981.956 385.639Z"/>
</svg>
